<?xml version="1.0" encoding="utf-8"?>
<!-- Generator: Adobe Illustrator 24.1.0, SVG Export Plug-In . SVG Version: 6.00 Build 0)  -->
<svg version="1.1" id="Layer_1" xmlns="http://www.w3.org/2000/svg" xmlns:xlink="http://www.w3.org/1999/xlink" x="0px" y="0px"
	 viewBox="0 0 64 64" style="enable-background:new 0 0 64 64;" xml:space="preserve">
<style type="text/css">
	.st0{fill:#D15037;}
</style>
<g id="Layer_2_1_">
</g>
<g id="Layer_3">
</g>
<g id="Layer_4">
</g>
<g id="Layer_5">
</g>
<g id="Layer_6">
</g>
<g id="Layer_7">
</g>
<g id="Layer_8">
</g>
<g id="Layer_9">
</g>
<g id="Layer_10">
</g>
<g id="Layer_11">
</g>
<g id="Layer_12">
</g>
<g id="Layer_13">
</g>
<g id="Layer_15">
</g>
<g id="Layer_16">
</g>
<g id="Layer_17">
</g>
<g id="Layer_18">
</g>
<g id="Layer_19">
</g>
<g id="Layer_20">
</g>
<g id="Layer_21">
</g>
<g id="Layer_22">
</g>
<g id="Layer_23">
</g>
<g id="Layer_24">
</g>
<g id="Layer_25">
</g>
<g id="Layer_26">
</g>
<g id="Layer_27">
	<g>
		<path class="st0" d="M1.1,35h2.5c0.5,2.9,3.1,5.1,6.1,5.1c3.1,0,5.6-2.2,6.1-5.1h1.5c0.5,2.9,3.1,5.1,6.1,5.1
			c3.1,0,5.6-2.2,6.1-5.1H31c0.5,2.9,3.1,5.1,6.1,5.1c3.1,0,5.6-2.2,6.1-5.1h19.7c0.6,0,1.1-0.5,1.1-1.1s-0.5-1.1-1.1-1.1H43.2
			c-0.5-2.9-3.1-5.1-6.1-5.1c-3.1,0-5.6,2.2-6.1,5.1h-1.5c-0.5-2.9-3.1-5.1-6.1-5.1c-3.1,0-5.6,2.2-6.1,5.1h-1.5
			c-0.5-2.9-3.1-5.1-6.1-5.1c-3.1,0-5.6,2.2-6.1,5.1H1.1c-0.6,0-1.1,0.5-1.1,1.1S0.5,35,1.1,35z M37.1,29.9c2.2,0,4,1.8,4,4
			s-1.8,4-4,4c-1.8,0-3.4-1.2-3.8-2.9h2.4c0.6,0,1.1-0.5,1.1-1.1s-0.5-1.1-1.1-1.1h-2.4C33.7,31.1,35.3,29.9,37.1,29.9z M23.4,29.9
			c2.2,0,4,1.8,4,4s-1.8,4-4,4c-1.8,0-3.4-1.2-3.8-2.9H22c0.6,0,1.1-0.5,1.1-1.1s-0.5-1.1-1.1-1.1h-2.4C20,31.1,21.6,29.9,23.4,29.9
			z M9.7,29.9c2.2,0,4,1.8,4,4s-1.8,4-4,4c-1.8,0-3.4-1.2-3.8-2.9h2.4c0.6,0,1.1-0.5,1.1-1.1s-0.5-1.1-1.1-1.1H5.8
			C6.3,31.1,7.9,29.9,9.7,29.9z"/>
		<path class="st0" d="M62.9,47.3H43.2c-0.5-2.9-3.1-5.1-6.1-5.1c-3.1,0-5.6,2.2-6.1,5.1h-1.5c-0.5-2.9-3.1-5.1-6.1-5.1
			c-3.1,0-5.6,2.2-6.1,5.1h-1.5c-0.5-2.9-3.1-5.1-6.1-5.1c-3.1,0-5.6,2.2-6.1,5.1H1.1c-0.6,0-1.1,0.5-1.1,1.1s0.5,1.1,1.1,1.1h2.5
			c0.5,2.9,3.1,5.1,6.1,5.1c3.1,0,5.6-2.2,6.1-5.1h1.5c0.5,2.9,3.1,5.1,6.1,5.1c3.1,0,5.6-2.2,6.1-5.1H31c0.5,2.9,3.1,5.1,6.1,5.1
			c3.1,0,5.6-2.2,6.1-5.1h19.7c0.6,0,1.1-0.5,1.1-1.1C64,47.8,63.5,47.3,62.9,47.3z M9.7,52.4c-1.8,0-3.4-1.2-3.8-2.9h2.4
			c0.6,0,1.1-0.5,1.1-1.1s-0.5-1.1-1.1-1.1H5.8c0.5-1.7,2-2.9,3.8-2.9c2.2,0,4,1.8,4,4C13.7,50.6,11.9,52.4,9.7,52.4z M23.4,52.4
			c-1.8,0-3.4-1.2-3.8-2.9H22c0.6,0,1.1-0.5,1.1-1.1s-0.5-1.1-1.1-1.1h-2.4c0.5-1.7,2-2.9,3.8-2.9c2.2,0,4,1.8,4,4
			C27.4,50.6,25.6,52.4,23.4,52.4z M37.1,52.4c-1.8,0-3.4-1.2-3.8-2.9h2.4c0.6,0,1.1-0.5,1.1-1.1s-0.5-1.1-1.1-1.1h-2.4
			c0.5-1.7,2-2.9,3.8-2.9c2.2,0,4,1.8,4,4C41.1,50.6,39.3,52.4,37.1,52.4z"/>
		<path class="st0" d="M18,20.4c0,1-0.8,2.5-1.1,3c-0.3,0.5-0.2,1.2,0.3,1.5c0.2,0.1,0.4,0.2,0.6,0.2c0.4,0,0.7-0.2,0.9-0.5
			c0.1-0.2,1.4-2.3,1.4-4.2c0-1.6-0.8-2.7-1.4-3.6s-1.2-1.7-1.2-3c0-1.6,0.9-2.5,1-2.5c0.4-0.4,0.5-1.1,0.1-1.6
			c-0.4-0.4-1.1-0.5-1.6-0.1c-0.1,0.1-1.7,1.6-1.7,4.1c0,2,0.9,3.3,1.6,4.3C17.6,18.9,18,19.5,18,20.4z"/>
		<path class="st0" d="M23.6,20.4c0,1-0.8,2.5-1.1,3c-0.3,0.5-0.2,1.2,0.3,1.5c0.2,0.1,0.4,0.2,0.6,0.2c0.4,0,0.7-0.2,0.9-0.5
			c0.1-0.2,1.4-2.3,1.4-4.2c0-1.6-0.8-2.7-1.4-3.6s-1.2-1.7-1.2-3c0-1.6,0.9-2.5,1-2.5c0.4-0.4,0.5-1.1,0.1-1.6
			c-0.4-0.4-1.1-0.5-1.6-0.1c-0.1,0.1-1.7,1.6-1.7,4.1c0,2,0.9,3.3,1.6,4.3C23.2,18.9,23.6,19.5,23.6,20.4z"/>
		<path class="st0" d="M29.2,20.4c0,1-0.8,2.5-1.1,3c-0.3,0.5-0.2,1.2,0.3,1.5c0.2,0.1,0.4,0.2,0.6,0.2c0.4,0,0.7-0.2,0.9-0.5
			c0.1-0.2,1.4-2.3,1.4-4.2c0-1.6-0.8-2.7-1.4-3.6s-1.2-1.7-1.2-3c0-1.6,0.9-2.5,1-2.5c0.4-0.4,0.5-1.1,0.1-1.6
			c-0.4-0.4-1.1-0.5-1.6-0.1c-0.1,0.1-1.7,1.6-1.7,4.1c0,2,0.9,3.3,1.6,4.3C28.7,18.9,29.2,19.5,29.2,20.4z"/>
	</g>
</g>
</svg>
