<?xml version="1.0" encoding="utf-8"?>
<!-- Generator: Adobe Illustrator 24.1.0, SVG Export Plug-In . SVG Version: 6.00 Build 0)  -->
<svg version="1.1" id="Layer_1" xmlns="http://www.w3.org/2000/svg" xmlns:xlink="http://www.w3.org/1999/xlink" x="0px" y="0px"
	 viewBox="0 0 48 48" style="enable-background:new 0 0 48 48;" xml:space="preserve">
<style type="text/css">
	.st0{fill:#86A3CE;}
</style>
<g id="Expanded">
	<g>
		<g>
			<path class="st0" d="M36,48H12c-0.52,0-0.96-0.4-1-0.92L9.07,21.95C5.09,21.48,2,18.1,2,14c0-4.42,3.68-8.15,8.03-8.15
				c0.91,0,1.8,0.18,2.64,0.52C14.07,2.51,18.44,0,24,0c5.22,0,8.88,2.11,11.14,6.45c0.89-0.4,1.85-0.6,2.83-0.6
				C42.32,5.85,46,9.58,46,14c0,4.1-3.1,7.48-7.07,7.95L37,47.08C36.96,47.6,36.52,48,36,48z M12.93,46h22.15L37,20.92
				C37.04,20.4,37.48,20,38,20c3.31,0,6-2.69,6-6c0-3.62-3.18-6.15-6.03-6.15c-0.98,0-1.9,0.27-2.72,0.82
				C35,8.83,34.69,8.87,34.41,8.79c-0.28-0.08-0.51-0.28-0.63-0.56C31.9,3.98,28.79,2,24,2c-5.16,0-9.06,2.41-9.71,6.01
				c-0.06,0.33-0.28,0.61-0.59,0.74c-0.31,0.13-0.66,0.1-0.94-0.08c-0.82-0.54-1.74-0.82-2.72-0.82C7.18,7.85,4,10.38,4,14
				c0,3.31,2.69,6,6,6c0.52,0,0.96,0.4,1,0.92L12.93,46z"/>
		</g>
		<g>
			<path class="st0" d="M36.62,40H11.38c-0.55,0-1-0.45-1-1s0.45-1,1-1h25.25c0.55,0,1,0.45,1,1S37.18,40,36.62,40z"/>
		</g>
		<g>
			<path class="st0" d="M19,40c-0.55,0-1-0.45-1-1v-8c0-0.55,0.45-1,1-1s1,0.45,1,1v8C20,39.55,19.55,40,19,40z"/>
		</g>
		<g>
			<path class="st0" d="M24,40c-0.55,0-1-0.45-1-1V29c0-0.55,0.45-1,1-1s1,0.45,1,1v10C25,39.55,24.55,40,24,40z"/>
		</g>
		<g>
			<path class="st0" d="M29,40c-0.55,0-1-0.45-1-1v-8c0-0.55,0.45-1,1-1s1,0.45,1,1v8C30,39.55,29.55,40,29,40z"/>
		</g>
	</g>
</g>
</svg>
