<?xml version="1.0" encoding="utf-8"?>
<!-- Generator: Adobe Illustrator 24.1.0, SVG Export Plug-In . SVG Version: 6.00 Build 0)  -->
<svg version="1.1" id="Layer_1" xmlns="http://www.w3.org/2000/svg" xmlns:xlink="http://www.w3.org/1999/xlink" x="0px" y="0px"
	 viewBox="0 0 48 48" style="enable-background:new 0 0 48 48;" xml:space="preserve">
<style type="text/css">
	.st0{fill:#D15037;}
</style>
<g id="Expanded">
	<g>
		<g>
			<path class="st0" d="M36,48H12c-0.5,0-1-0.4-1-0.9L9.1,22c-4-0.5-7.1-3.9-7.1-8c0-4.4,3.7-8.1,8-8.1c0.9,0,1.8,0.2,2.6,0.5
				C14.1,2.5,18.4,0,24,0c5.2,0,8.9,2.1,11.1,6.4C36,6,37,5.8,38,5.8c4.3,0,8,3.7,8,8.1c0,4.1-3.1,7.5-7.1,8L37,47.1
				C37,47.6,36.5,48,36,48z M12.9,46h22.2L37,20.9c0-0.5,0.5-0.9,1-0.9c3.3,0,6-2.7,6-6c0-3.6-3.2-6.2-6-6.2c-1,0-1.9,0.3-2.7,0.8
				c-0.2,0.2-0.6,0.2-0.8,0.1s-0.5-0.3-0.6-0.6C31.9,4,28.8,2,24,2c-5.2,0-9.1,2.4-9.7,6c-0.1,0.3-0.3,0.6-0.6,0.7S13,8.9,12.8,8.7
				C11.9,8.1,11,7.8,10,7.8c-2.9,0-6,2.5-6,6.2c0,3.3,2.7,6,6,6c0.5,0,1,0.4,1,0.9L12.9,46z"/>
		</g>
		<g>
			<path class="st0" d="M36.6,40H11.4c-0.6,0-1-0.5-1-1s0.4-1,1-1h25.2c0.5,0,1,0.5,1,1S37.2,40,36.6,40z"/>
		</g>
		<g>
			<path class="st0" d="M19,40c-0.5,0-1-0.5-1-1v-8c0-0.5,0.5-1,1-1s1,0.5,1,1v8C20,39.5,19.5,40,19,40z"/>
		</g>
		<g>
			<path class="st0" d="M24,40c-0.5,0-1-0.5-1-1V29c0-0.5,0.5-1,1-1s1,0.5,1,1v10C25,39.5,24.5,40,24,40z"/>
		</g>
		<g>
			<path class="st0" d="M29,40c-0.5,0-1-0.5-1-1v-8c0-0.5,0.5-1,1-1s1,0.5,1,1v8C30,39.5,29.5,40,29,40z"/>
		</g>
	</g>
</g>
</svg>
