<?xml version="1.0" encoding="utf-8"?>
<!-- Generator: Adobe Illustrator 24.1.0, SVG Export Plug-In . SVG Version: 6.00 Build 0)  -->
<svg version="1.1" id="Layer_1" xmlns="http://www.w3.org/2000/svg" xmlns:xlink="http://www.w3.org/1999/xlink" x="0px" y="0px"
	 viewBox="0 0 512 512" style="enable-background:new 0 0 512 512;" xml:space="preserve">
<style type="text/css">
	.st0{fill:#86A3CE;}
</style>
<g id="Menu">
	<path class="st0" d="M385,28H104.7c-4.4,0-8,3.6-8,8c0,0,0,0,0,0v376c0,4.4,3.6,8,8,8c0,0,0,0,0,0h161.3v56c0,4.4,3.6,8,8,8
		c1.7,0,3.3-0.5,4.7-1.5l31-22.3l31,22.3c3.6,2.6,8.6,1.8,11.2-1.8c1-1.4,1.5-3,1.5-4.7v-56H385c16.7,0,30.2-13.5,30.2-30.2V58.2
		C415.2,41.5,401.7,28,385,28z M112.7,44h24v360h-24V44z M337.4,460.4l-23-16.5c-2.8-2-6.6-2-9.4,0l-23,16.5V420h55.3V460.4z
		 M399.3,389.8c0,7.9-6.4,14.2-14.2,14.2H152.7V44H385c7.9,0,14.2,6.4,14.2,14.2L399.3,389.8z"/>
	<path class="st0" d="M317.3,135.1c-17.6,0-31.9,18-31.9,40.2c0,18.7,10.2,34.2,23.9,38.7v89.1c0,4.4,3.6,8,8,8s8-3.6,8-8V214
		c13.7-4.5,23.9-20.1,23.9-38.7C349.2,153.1,334.9,135.1,317.3,135.1z M317.3,199.4c-8.6,0-15.9-11.1-15.9-24.2s7.3-24.2,15.9-24.2
		s15.9,11.1,15.9,24.2S325.9,199.4,317.3,199.4z"/>
	<path class="st0" d="M258.7,135.1c-4.4,0-8,3.6-8,8c0,0,0,0,0,0v40.4c0,8.8-7.1,15.9-15.9,15.9s-15.9-7.1-15.9-15.9v-40.4
		c0-4.4-3.6-8-8-8s-8,3.6-8,8v40.4c0,14.5,9.9,27.2,23.9,30.8v88.8c0,4.4,3.6,8,8,8s8-3.6,8-8v-88.8c14.1-3.6,23.9-16.3,23.9-30.8
		v-40.4C266.7,138.7,263.1,135.1,258.7,135.1C258.7,135.1,258.7,135.1,258.7,135.1z"/>
	<path class="st0" d="M234.7,182c4.4,0,8-3.6,8-8c0,0,0,0,0,0v-31c0-4.4-3.6-8-8-8s-8,3.6-8,8v31C226.7,178.5,230.3,182,234.7,182
		C234.7,182,234.7,182,234.7,182z"/>
</g>
</svg>
