<?xml version="1.0" encoding="utf-8"?>
<!-- Generator: Adobe Illustrator 24.1.0, SVG Export Plug-In . SVG Version: 6.00 Build 0)  -->
<svg version="1.1" id="plate" xmlns="http://www.w3.org/2000/svg" xmlns:xlink="http://www.w3.org/1999/xlink" x="0px" y="0px"
	 viewBox="0 0 32 32" style="enable-background:new 0 0 32 32;" xml:space="preserve">
<style type="text/css">
	.st0{fill:#D15037;}
</style>
<g>
	<path class="st0" d="M16,2C8.3,2,2,8.3,2,16s6.3,14,14,14s14-6.3,14-14S23.7,2,16,2z M16,28C9.4,28,4,22.6,4,16S9.4,4,16,4
		s12,5.4,12,12S22.6,28,16,28z"/>
	<path class="st0" d="M16,7c-5,0-9,4-9,9s4,9,9,9s9-4,9-9S21,7,16,7z M16,23c-3.9,0-7-3.1-7-7s3.1-7,7-7s7,3.1,7,7S19.9,23,16,23z"
		/>
	<path class="st0" d="M21,15c-0.6,0-1,0.4-1,1c0,2.2-1.8,4-4,4c-0.6,0-1,0.4-1,1s0.4,1,1,1c3.3,0,6-2.7,6-6C22,15.4,21.6,15,21,15z"
		/>
	<path class="st0" d="M16,10.9c-0.1-0.5-0.6-0.9-1.2-0.8c-1.4,0.3-2.7,1.1-3.6,2.3c-0.3,0.4-0.2,1.1,0.2,1.4
		c0.2,0.1,0.4,0.2,0.6,0.2c0.3,0,0.6-0.1,0.8-0.4c0.6-0.8,1.4-1.3,2.4-1.5C15.7,12,16.1,11.4,16,10.9z"/>
</g>
</svg>
